<svg width="54" height="54" id="Layer_1" xmlns="http://www.w3.org/2000/svg" viewBox="0 0 54 54">
	<path fill="#FFF" d="M27,51.371c-0.265,0-0.518-0.113-0.696-0.308L3.895,26.27C1.39,23.673,0,20.23,0,16.598
		C0,8.895,6.267,2.629,13.969,2.629c5.929,0,11.007,3.714,13.031,8.937c2.024-5.223,7.102-8.937,13.031-8.937
		C47.733,2.629,54,8.895,54,16.598c0,3.633-1.39,7.076-3.916,9.694L27.696,51.063C27.518,51.259,27.265,51.371,27,51.371z
		 M13.969,4.503C7.3,4.503,1.875,9.929,1.875,16.598c0,3.144,1.204,6.125,3.391,8.392L27,49.036l21.714-24.024
		c2.208-2.288,3.412-5.269,3.412-8.414c0-6.669-5.425-12.094-12.094-12.094S27.937,9.929,27.937,16.598
		c0,0.518-0.419,0.937-0.937,0.937s-0.937-0.42-0.937-0.937C26.063,9.929,20.637,4.503,13.969,4.503z"/>
	<path fill="#FFF" d="M21.92,45.674c-0.24,0-0.48-0.092-0.663-0.275c-0.366-0.366-0.366-0.959,0-1.325l5.1-5.101l-5.1-5.1
		c-0.366-0.366-0.366-0.959,0-1.325l5.1-5.1l-5.1-5.101c-0.366-0.366-0.366-0.959,0-1.325l5.08-5.084
		c0.366-0.366,0.959-0.366,1.325,0c0.366,0.366,0.366,0.96,0,1.326l-4.418,4.421l5.1,5.101c0.366,0.366,0.366,0.959,0,1.325
		l-5.1,5.1l5.1,5.1c0.366,0.366,0.366,0.959,0,1.325l-5.763,5.764C22.399,45.582,22.159,45.674,21.92,45.674z"/>
</svg>
