<svg xmlns="http://www.w3.org/2000/svg" width="54" height="54" viewBox="0 0 54 54">
<path fill="#FFF" d="M46.64,51.549H7.36c-0.523,0-0.946-0.423-0.946-0.946V23.696c0-0.522,0.423-0.946,0.946-0.946h39.28
	c0.523,0,0.946,0.424,0.946,0.946v26.907C47.586,51.126,47.163,51.549,46.64,51.549z M8.306,49.657h37.388V24.642H8.306V49.657z"/>
<path fill="#FFF" d="M51.246,24.642H2.754c-0.408,0-0.77-0.262-0.899-0.649c-0.127-0.388,0.008-0.814,0.336-1.057L26.437,4.997
	c0.334-0.248,0.791-0.248,1.125,0l24.246,17.939c0.328,0.242,0.464,0.669,0.336,1.057C52.016,24.38,51.654,24.642,51.246,24.642z
	 M5.623,22.75h42.754L27,6.934L5.623,22.75z"/>
<path fill="#FFF" d="M51.246,54H2.754c-0.523,0-0.946-0.423-0.946-0.946v-2.451c0-0.523,0.423-0.946,0.946-0.946h48.492
	c0.523,0,0.946,0.423,0.946,0.946v2.451C52.192,53.577,51.769,54,51.246,54z M3.7,52.108h46.6v-0.559H3.7V52.108z"/>
<path fill="#FFF" d="M20.453,51.549c-0.523,0-0.946-0.423-0.946-0.946V23.696c0-0.522,0.423-0.946,0.946-0.946
	s0.946,0.424,0.946,0.946v26.907C21.399,51.126,20.976,51.549,20.453,51.549z M34.493,50.603V23.696
	c0-0.522-0.423-0.946-0.946-0.946s-0.946,0.424-0.946,0.946v26.907c0,0.523,0.423,0.946,0.946,0.946S34.493,51.126,34.493,50.603z
	 M27.946,14.428V0.946C27.946,0.424,27.523,0,27,0s-0.946,0.424-0.946,0.946v13.482c0,0.522,0.423,0.946,0.946,0.946
	S27.946,14.951,27.946,14.428z"/>
<path fill="#FFF" d="M27,20.104c-1.825,0-3.311-1.485-3.311-3.311s1.485-3.311,3.311-3.311s3.311,1.485,3.311,3.311
	S28.825,20.104,27,20.104z M27,15.374c-0.782,0-1.419,0.636-1.419,1.419c0,0.782,0.636,1.419,1.419,1.419s1.419-0.636,1.419-1.419
	C28.419,16.011,27.782,15.374,27,15.374z"/>
</svg>
