<svg xmlns="http://www.w3.org/2000/svg" height="54" width="54" viewBox="0 0 54 54">

	<path fill="#FFF" d="M32.213,54c-0.255,0-0.504-0.081-0.712-0.235c-0.272-0.201-0.446-0.508-0.479-0.845
		c-0.204-2.076-1.934-3.641-4.023-3.641s-3.818,1.566-4.023,3.641c-0.033,0.336-0.207,0.644-0.479,0.845
		c-0.271,0.201-0.615,0.277-0.948,0.211c-3.508-0.705-6.804-2.073-9.794-4.066c-0.28-0.188-0.47-0.485-0.52-0.818
		c-0.049-0.334,0.044-0.674,0.258-0.935c1.323-1.615,1.216-3.938-0.249-5.403s-3.789-1.571-5.402-0.249
		c-0.261,0.214-0.599,0.308-0.935,0.258c-0.334-0.05-0.632-0.239-0.819-0.52c-1.993-2.989-3.361-6.284-4.067-9.794
		c-0.067-0.332,0.011-0.676,0.211-0.948c0.201-0.272,0.508-0.446,0.845-0.479C3.155,30.818,4.72,29.089,4.72,27
		s-1.566-3.818-3.64-4.022c-0.336-0.033-0.644-0.207-0.845-0.478c-0.201-0.272-0.278-0.616-0.211-0.948
		c0.706-3.511,2.074-6.807,4.067-9.795c0.187-0.281,0.485-0.47,0.819-0.52c0.333-0.049,0.674,0.044,0.935,0.258
		c1.616,1.322,3.937,1.214,5.402-0.249c1.465-1.465,1.571-3.788,0.249-5.402c-0.214-0.261-0.307-0.601-0.258-0.935
		c0.05-0.334,0.238-0.631,0.52-0.819c2.99-1.993,6.284-3.362,9.794-4.067c0.333-0.067,0.676,0.011,0.948,0.211
		c0.272,0.201,0.446,0.508,0.479,0.845C23.182,3.155,24.911,4.721,27,4.721s3.818-1.566,4.023-3.641
		c0.033-0.336,0.207-0.644,0.479-0.845c0.27-0.201,0.613-0.278,0.948-0.211c3.508,0.705,6.803,2.074,9.794,4.067
		c0.28,0.187,0.47,0.485,0.52,0.819c0.049,0.334-0.044,0.674-0.258,0.935c-1.323,1.615-1.216,3.937,0.249,5.402
		s3.788,1.573,5.402,0.249c0.262-0.214,0.605-0.305,0.935-0.258c0.334,0.05,0.632,0.239,0.819,0.52
		c1.993,2.988,3.361,6.284,4.067,9.795c0.067,0.331-0.011,0.675-0.211,0.948c-0.201,0.272-0.508,0.446-0.845,0.478
		c-2.076,0.204-3.642,1.933-3.642,4.022s1.566,3.818,3.642,4.023c0.336,0.033,0.644,0.207,0.845,0.479
		c0.201,0.272,0.278,0.616,0.211,0.948c-0.706,3.51-2.074,6.805-4.067,9.794c-0.187,0.281-0.485,0.47-0.819,0.52
		c-0.332,0.047-0.674-0.044-0.935-0.258c-1.615-1.323-3.937-1.217-5.402,0.249c-1.465,1.465-1.571,3.788-0.249,5.403
		c0.214,0.261,0.307,0.601,0.258,0.935c-0.05,0.334-0.24,0.631-0.52,0.818c-2.99,1.993-6.286,3.361-9.794,4.066
		C32.371,53.992,32.291,54,32.213,54z M14.087,48.554c2.117,1.273,4.389,2.217,6.777,2.816c0.827-2.63,3.269-4.483,6.136-4.483
		s5.309,1.853,6.136,4.483c2.388-0.599,4.66-1.542,6.777-2.816c-1.276-2.445-0.868-5.475,1.148-7.492
		c2.015-2.018,5.048-2.426,7.491-1.148c1.273-2.117,2.217-4.389,2.816-6.779c-2.63-0.827-4.483-3.268-4.483-6.135
		s1.853-5.308,4.483-6.135c-0.598-2.39-1.542-4.662-2.816-6.778c-2.443,1.276-5.476,0.869-7.491-1.148
		c-2.017-2.017-2.424-5.047-1.148-7.491c-2.118-1.274-4.389-2.217-6.777-2.816C32.309,5.261,29.867,7.114,27,7.114
		s-5.309-1.853-6.136-4.483c-2.389,0.599-4.66,1.542-6.777,2.816c1.276,2.445,0.868,5.475-1.148,7.492
		c-2.017,2.017-5.051,2.424-7.491,1.148c-1.273,2.116-2.217,4.388-2.816,6.779C5.26,21.692,7.113,24.133,7.113,27
		s-1.853,5.308-4.482,6.135c0.598,2.39,1.542,4.662,2.816,6.779c2.441-1.278,5.475-0.87,7.491,1.148
		C14.955,43.079,15.362,46.109,14.087,48.554z"/>
	<path fill="#FFF" d="M27,38.082c-6.111,0-11.083-4.971-11.083-11.082S20.889,15.918,27,15.918
		c6.11,0,11.082,4.971,11.082,11.082S33.11,38.082,27,38.082z M27,18.311c-4.791,0-8.69,3.898-8.69,8.689S22.209,35.69,27,35.69
		s8.689-3.898,8.689-8.689S31.791,18.311,27,18.311z"/>
	<path fill="#FFF" d="M27,32.818c-3.208,0-5.818-2.61-5.818-5.818s2.61-5.818,5.818-5.818c3.207,0,5.817,2.61,5.817,5.818
		S30.207,32.818,27,32.818z M27,23.575c-1.889,0-3.426,1.536-3.426,3.425c0,1.889,1.536,3.425,3.426,3.425
		c1.888,0,3.424-1.536,3.424-3.425C30.424,25.112,28.888,23.575,27,23.575z"/>
</svg>
