<?xml version="1.0" encoding="iso-8859-1"?>
<!-- Generator: Adobe Illustrator 19.0.0, SVG Export Plug-In . SVG Version: 6.00 Build 0)  -->
<svg version="1.1" id="Layer_1" xmlns="http://www.w3.org/2000/svg" xmlns:xlink="http://www.w3.org/1999/xlink" x="0px" y="0px"
	 viewBox="0 0 112.333 112.333" style="enable-background:new 0 0 112.333 112.333;" xml:space="preserve">
<g id="XMLID_1431_">
	<g id="XMLID_1435_">
		
			<path id="XMLID_1439_" style="fill:none;stroke:#99999A;stroke-width:2.3335;stroke-linecap:round;stroke-linejoin:round;stroke-miterlimit:10;" d="
			M44.43,70.087l13.311,14.727l21.494-23.78c2.168-2.248,3.504-5.304,3.504-8.673c0-6.903-5.596-12.499-12.499-12.499
			s-12.499,5.596-12.499,12.499c0-6.903-5.596-12.499-12.499-12.499s-12.499,5.596-12.499,12.499c0,3.37,1.336,6.426,3.504,8.673"/>
		
			<polyline id="XMLID_1438_" style="fill:none;stroke:#99999A;stroke-width:2.3335;stroke-linecap:round;stroke-linejoin:round;stroke-miterlimit:10;" points="
			71.719,62.389 66.097,62.389 60.846,68.602 57.244,64.639 53.723,68.602 45.464,59.597 35.776,75.751 24.42,75.751 		"/>
	</g>
	<circle id="XMLID_1433_" style="fill:#EB0029;" cx="71.719" cy="62.389" r="2.25"/>
	<circle id="XMLID_1432_" style="fill:#EB0029;" cx="24.42" cy="75.751" r="2.25"/>
</g>
<g id="XMLID_452_">
	
		<polyline id="XMLID_1418_" style="fill:none;stroke:#EB0029;stroke-width:2.3335;stroke-linecap:round;stroke-linejoin:round;stroke-miterlimit:10;" points="
		10.494,65.494 1.167,56.167 56.167,1.167 111.167,56.167 56.167,111.167 43.609,98.609 	"/>
</g>
</svg>
