<svg xmlns="http://www.w3.org/2000/svg" height="54" width="54" viewBox="0 0 54 54">

	<path fill="#FFF" d="M30.631,9.339h-7.262c-0.393,0-0.753-0.222-0.929-0.574l-3.631-7.262c-0.161-0.322-0.143-0.704,0.046-1.011
		C19.044,0.187,19.378,0,19.738,0h14.524c0.36,0,0.694,0.187,0.883,0.492c0.189,0.306,0.206,0.689,0.046,1.011L31.56,8.765
		C31.384,9.116,31.024,9.339,30.631,9.339z M24.011,7.262h5.978l2.593-5.185H21.419L24.011,7.262z"/>
	<path fill="#FFF" d="M38.165,54h-22.33c-0.345,0-0.667-0.171-0.86-0.457L3.809,37.022c-0.236-0.349-0.237-0.806-0.005-1.156
		l18.7-28.14c0.193-0.29,0.517-0.464,0.865-0.464h7.262c0.348,0,0.672,0.174,0.865,0.464l18.7,28.14
		c0.233,0.35,0.231,0.807-0.005,1.156L39.026,53.543C38.833,53.829,38.51,54,38.165,54z M16.386,51.923h21.227l10.467-15.488
		L30.074,9.339h-6.148L5.919,36.435L16.386,51.923z"/>
	<path fill="#FFF" d="M31.657,42.842h-9.314c-0.573,0-1.038-0.465-1.038-1.038s0.465-1.038,1.038-1.038h8.276v-2.58h-8.276
		c-0.573,0-1.038-0.465-1.038-1.038v-4.657c0-0.573,0.465-1.038,1.038-1.038h9.314c0.573,0,1.038,0.465,1.038,1.038
		c0,0.573-0.465,1.038-1.038,1.038h-8.276v2.58h8.276c0.573,0,1.038,0.465,1.038,1.038v4.657
		C32.696,42.377,32.231,42.842,31.657,42.842z"/>
	<path fill="#FFF" d="M25.603,44.958c-0.573,0-1.038-0.465-1.038-1.038V30.374c0-0.573,0.465-1.038,1.038-1.038
		s1.038,0.465,1.038,1.038v13.545C26.641,44.493,26.176,44.958,25.603,44.958z"/>
	<path fill="#FFF" d="M28.397,44.958c-0.573,0-1.038-0.465-1.038-1.038V30.374c0-0.573,0.465-1.038,1.038-1.038
		s1.038,0.465,1.038,1.038v13.545C29.436,44.493,28.971,44.958,28.397,44.958z"/>

</svg>
