<?xml version="1.0" encoding="iso-8859-1"?>
<!-- Generator: Adobe Illustrator 19.0.0, SVG Export Plug-In . SVG Version: 6.00 Build 0)  -->
<svg version="1.1" id="Layer_1" xmlns="http://www.w3.org/2000/svg" xmlns:xlink="http://www.w3.org/1999/xlink" x="0px" y="0px"
	 viewBox="0 0 112.333 112.333" style="enable-background:new 0 0 112.333 112.333;" xml:space="preserve">
<g id="XMLID_1476_">
	
		<polyline id="XMLID_1477_" style="fill:none;stroke:#EB0029;stroke-width:2.3335;stroke-linecap:round;stroke-linejoin:round;stroke-miterlimit:10;" points="
		10.494,65.494 1.167,56.167 56.167,1.167 111.167,56.167 56.167,111.167 43.609,98.609 	"/>
</g>
<g id="XMLID_82_">
	
		<polyline id="XMLID_176_" style="fill:none;stroke:#99999A;stroke-width:2.3335;stroke-linecap:round;stroke-linejoin:round;stroke-miterlimit:10;" points="
		67.912,48.758 64.618,67.022 82.447,67.022 79.153,48.758 	"/>
	
		<path id="XMLID_200_" style="fill:none;stroke:#99999A;stroke-width:2.3335;stroke-linecap:round;stroke-linejoin:round;stroke-miterlimit:10;" d="
		M81.125,43.696c0,4.151-3.365,7.517-7.517,7.517c-4.151,0-7.517-3.365-7.517-7.517s3.365-7.517,7.517-7.517"/>
	<circle id="XMLID_118_" style="fill:#EB0029;" cx="81.125" cy="43.696" r="2.25"/>
	
		<polyline id="XMLID_206_" style="fill:none;stroke:#99999A;stroke-width:2.3335;stroke-linecap:round;stroke-linejoin:round;stroke-miterlimit:10;" points="
		50.082,57.89 46.789,76.154 64.618,76.154 61.324,57.89 	"/>
	
		<path id="XMLID_203_" style="fill:none;stroke:#99999A;stroke-width:2.3335;stroke-linecap:round;stroke-linejoin:round;stroke-miterlimit:10;" d="
		M63.295,52.828c0,4.151-3.365,7.517-7.517,7.517s-7.517-3.365-7.517-7.517s3.365-7.517,7.517-7.517"/>
	<circle id="XMLID_201_" style="fill:#EB0029;" cx="63.295" cy="52.828" r="2.25"/>
	
		<polyline id="XMLID_209_" style="fill:none;stroke:#99999A;stroke-width:2.3335;stroke-linecap:round;stroke-linejoin:round;stroke-miterlimit:10;" points="
		32.253,48.758 28.959,67.022 46.789,67.022 43.495,48.758 	"/>
	
		<path id="XMLID_180_" style="fill:none;stroke:#99999A;stroke-width:2.3335;stroke-linecap:round;stroke-linejoin:round;stroke-miterlimit:10;" d="
		M45.466,43.696c0,4.151-3.365,7.517-7.517,7.517s-7.517-3.365-7.517-7.517s3.365-7.517,7.517-7.517"/>
	<circle id="XMLID_154_" style="fill:#EB0029;" cx="45.466" cy="43.696" r="2.25"/>
</g>
</svg>
