<svg xmlns="http://www.w3.org/2000/svg" height="54" width="54" viewBox="0 0 54 54">

	<path fill="#FFF" d="M26.999,54.001c-2.452,0-4.446-1.994-4.446-4.446V31.446H4.446C1.994,31.446,0,29.452,0,27
		s1.994-4.446,4.446-4.446h18.107V4.446c0-2.452,1.994-4.446,4.446-4.446s4.446,1.994,4.446,4.446v18.108h18.108
		C52.006,22.554,54,24.548,54,27s-1.994,4.446-4.446,4.446H31.446v18.108C31.446,52.006,29.451,54.001,26.999,54.001z M4.446,25.518
		c-0.818,0-1.482,0.664-1.482,1.482s0.664,1.482,1.482,1.482h19.589c0.819,0,1.482,0.663,1.482,1.482v19.59
		c0,0.818,0.664,1.482,1.482,1.482c0.818,0,1.482-0.664,1.482-1.482v-19.59c0-0.819,0.663-1.482,1.482-1.482h19.59
		c0.818,0,1.482-0.664,1.482-1.482s-0.664-1.482-1.482-1.482h-19.59c-0.819,0-1.482-0.663-1.482-1.482V4.446
		c0-0.818-0.664-1.482-1.482-1.482c-0.818,0-1.482,0.664-1.482,1.482v19.59c0,0.819-0.663,1.482-1.482,1.482H4.446z"/>

</svg>
