<svg xmlns="http://www.w3.org/2000/svg" width="54" height="54" viewBox="8 -15 54 54">
<path fill="#FFF" d="M60.999,22.882H43.666c-0.322,0-0.624-0.053-0.812-0.315c-0.188-0.262-0.238-0.547-0.136-0.853L51.385-4.1
	c0.137-0.408,0.518-0.67,0.948-0.67s0.811,0.281,0.948,0.689l8.667,25.842c0.103,0.305,0.052,0.541-0.136,0.803
	C61.623,22.828,61.321,22.882,60.999,22.882z M45.057,20.882h14.551L52.333-0.81L45.057,20.882z"/>
<path fill="#FFF" d="M26.332,22.882H8.999c-0.322,0-0.624-0.053-0.812-0.315c-0.188-0.262-0.238-0.547-0.136-0.852l8.667-25.814
	c0.137-0.408,0.518-0.67,0.948-0.67s0.811,0.281,0.948,0.689l8.667,25.842c0.103,0.305,0.052,0.541-0.136,0.803
	C26.957,22.828,26.654,22.882,26.332,22.882z M10.39,20.882h14.551L17.666-0.81L10.39,20.882z"/>
<path fill="#FFF" d="M56.666-5.736c-0.034,0-0.067-0.001-0.102-0.005L39.231-7.497c-0.551-0.056-0.952-0.549-0.896-1.101
	s0.542-0.954,1.099-0.898l17.333,1.757c0.551,0.056,0.952,0.549,0.896,1.101C57.611-6.122,57.175-5.736,56.666-5.736z"/>
<path fill="#FFF" d="M21.999,31.882h-8.667c-0.384,0-0.734-0.109-0.901-0.456l-4.333-8.963c-0.149-0.31-0.129-0.748,0.054-1.04
	c0.183-0.291,0.503-0.541,0.847-0.541h17.333c0.344,0,0.664,0.277,0.847,0.569s0.204,0.708,0.054,1.018L22.9,31.401
	C22.733,31.748,22.383,31.882,21.999,31.882z M13.961,29.882h7.41l3.371-7H10.59L13.961,29.882z"/>
<path fill="#FFF" d="M56.666,31.882h-8.667c-0.384,0-0.734-0.109-0.901-0.456l-4.333-8.963c-0.149-0.31-0.129-0.748,0.054-1.04
	c0.183-0.292,0.503-0.541,0.847-0.541h17.333c0.344,0,0.664,0.277,0.847,0.569s0.204,0.708,0.054,1.018l-4.333,8.932
	C57.4,31.748,57.05,31.882,56.666,31.882z M48.627,29.882h7.41l3.371-7H45.257L48.627,29.882z"/>
<path fill="#FFF" d="M43.666,35.882H26.332c-0.344,0-0.664-0.062-0.847-0.353c-0.183-0.292-0.204-0.6-0.054-0.91l4.333-9.094
	c0.167-0.347,0.517-0.643,0.901-0.643h8.667c0.384,0,0.734,0.325,0.901,0.672l4.333,9.071c0.149,0.31,0.129,0.586-0.054,0.878
	S44.009,35.882,43.666,35.882z M27.924,33.882h14.15l-3.37-7h-7.41L27.924,33.882z"/>
<path fill="#FFF" d="M44.142,37.882h-18c-0.552,0-1.133-0.213-1.133-0.767v-2.004c0-0.553,0.58-1.229,1.133-1.229h18
	c0.552,0,0.867,0.676,0.867,1.229v2.004C45.009,37.669,44.694,37.882,44.142,37.882z"/>
<path fill="#FFF" d="M34.999-3.1c-0.268,0-0.524-0.108-0.713-0.298l-4.333-4.393c-0.386-0.391-0.386-1.021,0-1.412l4.333-4.393
	c0.377-0.382,1.049-0.382,1.426,0l4.333,4.393c0.386,0.391,0.386,1.021,0,1.412l-4.333,4.393C35.523-3.207,35.267-3.1,34.999-3.1z
	 M32.075-8.497l2.924,2.964l2.924-2.964l-2.924-2.964L32.075-8.497z"/>
<path fill="#FFF" d="M35.009,27.095c-0.552,0-1-0.449-1-1.002V-3.968c0-0.553,0.448-1.002,1-1.002s1,0.449,1,1.002v30.061
	C36.009,26.646,35.562,27.095,35.009,27.095z"/>
<path fill="#FFF" d="M17.009-2.966c-0.552,0-1-0.449-1-1.002v-3.006c0-0.553,0.448-1.002,1-1.002s1,0.449,1,1.002v3.006
	C18.009-3.415,17.562-2.966,17.009-2.966z"/>
<path fill="#FFF" d="M13.332-5.736c-0.508,0-0.944-0.386-0.997-0.903c-0.056-0.552,0.346-1.045,0.896-1.101l17.333-1.757
	c0.562-0.054,1.043,0.346,1.099,0.898s-0.346,1.045-0.896,1.101L13.434-5.74C13.399-5.737,13.365-5.736,13.332-5.736z M53.009-3.968
	v-3.006c0-0.553-0.448-1.002-1-1.002s-1,0.449-1,1.002v3.006c0,0.553,0.448,1.002,1,1.002S53.009-3.415,53.009-3.968z"/>
</svg>
