<?xml version="1.0" encoding="iso-8859-1"?>
<!-- Generator: Adobe Illustrator 19.0.0, SVG Export Plug-In . SVG Version: 6.00 Build 0)  -->
<svg version="1.1" id="Layer_1" xmlns="http://www.w3.org/2000/svg" xmlns:xlink="http://www.w3.org/1999/xlink" x="0px" y="0px"
	 viewBox="0 0 36.247 25.407" style="enable-background:new 0 0 36.247 25.407;" xml:space="preserve">
<g id="XMLID_677_">
	<path id="XMLID_884_" style="fill:#231F20;" d="M11.281,6.001v2.25c0,0.839-0.436,1.645-1.612,1.846L3.055,11.34v1.645
		c0.034,1.41,1.007,2.619,2.585,2.619c1.947,0,2.585-1.276,2.585-2.552c0-1.007,0.974-1.007,0.974-1.007h1.041
		c0.638,0,1.041,0.302,1.041,1.041c0,2.955-2.149,5.338-5.641,5.338c-3.324,0-5.64-2.317-5.64-5.439V7.042
		c0-3.357,2.082-5.875,5.876-5.875C8.931,1.167,11.281,3.013,11.281,6.001z M3.055,6.774v1.679l5.17-1.007V6.001
		c0-1.343-1.041-2.014-2.518-2.014C3.76,3.987,3.055,5.263,3.055,6.774z"/>
	<path id="XMLID_848_" style="fill:#231F20;" d="M22.796,5.162c0.067,0.436,0.101,0.839-0.705,1.074L20.95,6.505
		c-0.403,0.101-0.974,0.134-1.142-0.739c-0.201-1.007-0.772-1.779-2.316-1.779c-1.78,0-2.619,1.041-2.619,3.458v4.969
		c0,2.216,0.94,3.19,2.619,3.19c1.746,0,2.551-1.309,2.551-2.451c0-1.007,0.974-1.007,0.974-1.007h1.041
		c0.638,0,1.041,0.302,1.041,1.041c0,3.995-3.29,5.237-5.607,5.237c-3.693,0-5.674-2.048-5.674-6.01V7.445
		c0-4.6,2.955-6.278,5.674-6.278C19.708,1.167,22.226,2.073,22.796,5.162z"/>
	<path id="XMLID_679_" style="fill:#231F20;" d="M31.626,1.167c1.175,0,1.511-0.168,1.813-0.436l0.47-0.436
		c0.369-0.403,0.94-0.369,1.343-0.034l0.705,0.638c0.369,0.369,0.403,0.94,0,1.343L35.655,2.61c-0.47,0.571-1.175,1.041-1.981,1.209
		c1.041,1.007,1.074,2.149,1.074,3.492v0.907c0,2.954-2.417,5.338-5.741,5.338c-0.705,0-1.477-0.201-1.813-0.369l-1.074,1.343
		c-0.436,0.571-0.134,0.806,0.638,0.772l5.204-0.168c2.35-0.101,3.76,1.544,3.76,4.096c0,1.679-0.974,6.178-6.043,6.178
		c-3.727,0-6.01-1.578-6.01-3.861c0-2.082,1.007-3.727,1.007-3.727c-1.041-0.101-1.679-0.906-1.779-1.712
		c-0.101-0.739,0.269-1.813,0.906-2.619l1.175-1.477c-1.444-1.444-1.477-2.921-1.477-3.995V7.311c0-3.592,1.914-6.144,5.506-6.144
		H31.626z M27.53,17.987c-0.638,0.873-1.007,1.847-1.007,2.955c0,1.108,1.209,1.712,2.854,1.712c1.847,0,3.525-1.142,3.458-3.223
		c-0.034-1.074-0.638-1.612-1.611-1.578L27.53,17.987z M26.556,7.311v0.873c0,1.142,0.772,2.552,2.451,2.552
		c1.41,0,2.686-1.108,2.686-2.552V7.311c0-1.746-0.504-3.324-2.585-3.324C27.194,3.987,26.556,5.766,26.556,7.311z"/>
</g>
</svg>
