<?xml version="1.0" encoding="iso-8859-1"?>
<!-- Generator: Adobe Illustrator 19.0.0, SVG Export Plug-In . SVG Version: 6.00 Build 0)  -->
<svg version="1.1" id="Layer_1" xmlns="http://www.w3.org/2000/svg" xmlns:xlink="http://www.w3.org/1999/xlink" x="0px" y="0px"
	 viewBox="0 0 254.804 60" style="enable-background:new 0 0 254.804 60;" xml:space="preserve">
<g id="vWe7Vu_1_">
	<g id="XMLID_1177_">
		<path id="XMLID_1261_" style="fill:#EB0029;" d="M55.928,16.226c-3.015,0.568-3.144,0.468-3.145-2.41
			c-0.001-2.195,0.011-4.391-0.003-6.586c-0.014-2.206-1.141-3.403-3.312-3.405C35.177,3.81,20.886,3.81,6.595,3.823
			c-2.18,0.002-3.354,1.191-3.355,3.373C3.229,22.564,3.23,37.932,3.242,53.299c0.002,2.195,1.17,3.359,3.353,3.36
			c14.291,0.009,28.583,0.01,42.874,0c2.124-0.001,3.294-1.162,3.308-3.259c0.021-3.176,0.006-6.352,0.006-9.774
			c-3.457,0-6.763,0-10.069,0c-0.008-0.161-0.016-0.323-0.024-0.484c0.586-0.069,1.17-0.153,1.757-0.204
			c2.048-0.178,2.387-0.503,2.424-2.509c0.039-2.109,0.009-4.219,0.064-6.327c0.023-0.89-0.294-1.2-1.196-1.19
			c-3.615,0.04-7.232,0.048-10.847-0.001c-1.072-0.015-1.285,0.446-1.272,1.394v9.563h-3.804V20.093h3.852v8.685
			c-0.013,0.785,0.291,1.056,1.062,1.051c3.702-0.023,7.404-0.022,11.106-0.001c0.75,0.004,1.106-0.236,1.095-1.034
			c-0.028-1.98-0.022-3.96-0.002-5.94c0.01-0.974-0.405-1.254-1.28-0.874c-0.789,0.343-1.563,0.719-2.353,1.057
			c-0.364,0.156-0.752,0.256-1.129,0.381c-0.088-0.161-0.176-0.322-0.264-0.483c2.479-1.658,4.959-3.316,7.715-5.16
			c0.112,0.782,0.241,1.25,0.236,1.716c-0.03,3.012-0.052,6.026-0.157,9.036c-0.036,1.041,0.335,1.356,1.331,1.309
			c1.374-0.065,2.755,0.006,4.131-0.02c0.717-0.014,0.993,0.274,0.99,0.991c-0.036,7.662,0.029,15.325-0.115,22.984
			c-0.072,3.808-2.756,6.162-6.697,6.187c-6.155,0.039-12.311,0.011-18.467,0.012c-7.964,0-15.927-0.009-23.891,0.006
			C4.704,60,2.604,59.463,1.336,57.487c-0.706-1.101-1.266-2.527-1.273-3.81C-0.022,38.052-0.003,22.426,0.017,6.8
			c0.004-3.572,2.639-6.221,6.204-6.227C20.771,0.551,35.32,0.552,49.87,0.575c3.239,0.005,5.864,2.284,6.09,5.511
			c0.219,3.127,0.097,6.279,0.112,9.42C56.073,15.752,55.976,15.999,55.928,16.226z M52.699,42.87c0-3.304,0-6.537,0-9.942
			c-0.626,0-1.175,0.052-1.711-0.011c-1.026-0.12-1.346,0.304-1.307,1.305c0.084,2.14,0.008,4.287,0.121,6.425
			C49.905,42.599,50.55,43.06,52.699,42.87z"/>
		<path id="XMLID_1260_" style="fill:#EB0029;" d="M163.97,6.104c-0.28,3.722-0.561,7.443-0.84,11.165
			c-0.042,0.558-0.12,1.118-0.1,1.675c0.049,1.396-0.716,1.65-2.093,1.411c0.58-6.548,1.159-13.079,1.745-19.695
			c-0.034,0.025,0.027-0.058,0.099-0.069c2.898-0.428,2.894-0.426,3.792,2.376c1.207,3.769,2.419,7.537,3.635,11.304
			c0.143,0.445,0.319,0.879,0.576,1.582c0.264-0.651,0.451-1.068,0.604-1.498c1.499-4.215,2.994-8.432,4.485-12.65
			c0.378-1.069,2.597-1.885,3.492-1.242c0.167,0.12,0.26,0.438,0.271,0.67c0.282,6.233,0.548,12.468,0.813,18.702
			c0.003,0.078-0.053,0.158-0.143,0.409c-0.885,0.076-1.846,0.158-3.05,0.262c-0.242-4.997-0.479-9.872-0.733-15.117
			c-0.29,0.633-0.458,0.941-0.576,1.268c-1.479,4.085-3.004,8.155-4.392,12.271c-0.378,1.12-0.949,1.44-2.035,1.443
			c-1.081,0.002-0.959-0.847-1.144-1.421c-1.382-4.292-2.722-8.598-4.075-12.9C164.19,6.068,164.08,6.086,163.97,6.104z"/>
		<path id="XMLID_1259_" style="fill:#EB0029;" d="M91.492,0.677c2.925-0.761,3.174-0.579,3.175,2.193
			c0,1.765-0.034,3.531,0.035,5.293c0.013,0.329,0.439,0.913,0.687,0.92c2.398,0.07,4.799,0.042,7.295,0.042
			c0-2.252,0.012-4.428-0.004-6.604c-0.014-1.957,1.011-2.73,2.848-2.016c0.274,0.106,0.485,0.735,0.487,1.124
			c0.018,3.658-0.024,7.316-0.033,10.975c-0.005,2.152-0.026,4.305,0.048,6.454c0.032,0.938-0.215,1.37-1.206,1.287
			c-0.672-0.057-1.354-0.011-2.13-0.011c0-2.543-0.072-4.987,0.029-7.423c0.054-1.3-0.326-1.761-1.651-1.675
			c-1.542,0.101-3.097-0.012-4.646-0.009c-1.783,0.004-1.777,0.015-1.772,1.748c0.006,2.36,0.001,4.72,0.001,7.251
			c-1.074,0.049-2.113,0.096-3.164,0.144C91.492,13.684,91.492,7.164,91.492,0.677z"/>
		<path id="XMLID_1258_" style="fill:#EB0029;" d="M138.309,0.719c0.104-0.093,0.132-0.138,0.167-0.146
			c2.832-0.586,2.985-0.464,2.986,2.374c0,1.721,0.021,3.442-0.008,5.162c-0.012,0.679,0.164,1.036,0.924,1.034
			c2.021-0.004,4.043,0.028,6.064,0.078c0.868,0.021,1.221-0.296,1.18-1.209c-0.093-2.062-0.047-4.13-0.162-6.19
			c-0.06-1.07,0.287-1.512,1.357-1.406c0.628,0.062,1.262,0.062,1.948,0.093c0,6.609,0,13.09,0,19.712c-1.102,0-2.141,0-3.254,0
			c0-2.485-0.064-4.969,0.028-7.446c0.044-1.171-0.26-1.595-1.478-1.536c-1.845,0.089-3.698,0.029-5.547-0.015
			c-0.846-0.02-1.107,0.316-1.093,1.147c0.044,2.571,0.016,5.142,0.016,7.85c-1.002,0-2.014,0-3.129,0
			C138.309,13.753,138.309,7.203,138.309,0.719z"/>
		<path id="XMLID_1255_" style="fill:#EB0029;" d="M203.153,18.436c-2.365,2.078-5.019,2.605-7.929,2.106
			c-2.323-0.398-4.116-1.529-4.941-3.827c-0.821-2.287-0.013-4.231,1.512-5.926c0.625-0.695,1.393-1.262,2.107-1.898
			c-0.009-0.059,0.001-0.154-0.038-0.222c-2.211-3.958-0.58-7.291,3.917-7.975c0.507-0.077,1.029-0.087,1.544-0.078
			c3.365,0.064,4.256,1.62,2.669,5.008c-0.122-0.447-0.215-0.733-0.279-1.026c-0.404-1.856-1.744-2.845-3.651-2.687
			c-1.371,0.114-2.396,1.032-2.378,2.406c0.012,0.91,0.159,1.952,0.625,2.699c2.042,3.278,4.91,5.813,7.752,8.371
			c1.943-2.198,1.683-4.383-0.539-5.544c1.312-0.279,2.639-0.233,3.906,0.228c0.228,0.083,0.411,0.876,0.29,1.231
			c-0.589,1.73-1.289,3.422-2.033,5.343c1.619,1.429,3.591,2.788,6.055,3.399C208.692,20.433,205.682,20.707,203.153,18.436z
			 M201.919,17.503c-2.523-2.368-4.983-4.676-7.466-7.006c-1.661,1.394-1.863,4.663-0.152,6.73
			C196.1,19.4,199.305,19.551,201.919,17.503z"/>
		<path id="XMLID_1254_" style="fill:#FFFFFF;" d="M12.532,22.779l0.85-2.559h13.474c0,0-7.07,13.346-10.766,20.341
			c3.779,0,11.034,0,11.034,0l-0.835,3.188H11.58l11.291-20.97H12.532z"/>
		<path id="XMLID_1251_" style="fill:#EB0029;" d="M233.634,11.275c-0.13-4.239,1.652-7.444,5.235-9.707
			c4.733-2.99,10.025-1.197,11.916,4.078c1.809,5.045,0.229,10.174-4.104,13.27c-2.559,1.829-5.3,2.464-8.256,1.053
			c-2.986-1.426-4.49-3.897-4.785-7.145C233.594,12.311,233.634,11.791,233.634,11.275z M248.867,11.565
			c-0.047-0.01-0.094-0.02-0.14-0.03c-0.047-0.643-0.064-1.289-0.145-1.927c-0.615-4.853-4.29-7.614-8.844-6.713
			c-1.301,0.258-2.175,0.927-2.699,2.124c-1.155,2.639-1.304,5.331-0.297,8.026c1.328,3.556,5.071,5.651,8.528,4.881
			c1.46-0.325,2.541-1.068,2.885-2.588C248.437,14.091,248.633,12.824,248.867,11.565z"/>
		<path id="XMLID_1248_" style="fill:#EB0029;" d="M113.126,1.065c1.258-0.337,2.228-0.597,3.324-0.891
			c2.574,6.599,5.113,13.107,7.716,19.78c-0.967,0.204-1.823,0.468-2.692,0.519c-0.287,0.017-0.752-0.458-0.886-0.804
			c-0.605-1.561-1.163-3.143-1.65-4.744c-0.252-0.827-0.634-1.195-1.542-1.144c-1.371,0.076-2.752,0.068-4.124,0.002
			c-0.874-0.042-1.328,0.226-1.553,1.109c-0.339,1.33-0.807,2.627-1.223,3.936c-0.53,1.67-0.617,1.721-2.634,1.488
			c0.18-0.539,0.343-1.054,0.524-1.562c1.607-4.489,3.229-8.972,4.819-13.466C113.681,3.94,114.494,2.587,113.126,1.065z
			 M115.044,5.102c-0.824,2.431-1.528,4.507-2.264,6.679c1.689,0,3.22,0,4.872,0C116.787,9.564,115.984,7.509,115.044,5.102z"/>
		<path id="XMLID_1247_" style="fill:#EB0029;" d="M73.11,17.688c3.134,0,5.982,0,8.989,0c-0.2,0.873-0.271,1.566-0.537,2.173
			c-0.126,0.288-0.623,0.583-0.956,0.587c-3.692,0.041-7.386,0.026-11.401,0.026c3.045-5.881,5.925-11.443,8.928-17.244
			c-2.937,0-5.541,0-8.14,0c-0.015-2.305,0.406-2.727,2.52-2.697c2.58,0.036,5.16,0.059,7.739,0.093
			c0.418,0.006,0.836,0.04,1.53,0.076C78.875,6.4,76.061,11.911,73.11,17.688z"/>
		<path id="XMLID_1246_" style="fill:#EB0029;" d="M232.471,1.531c-0.108,0.184-0.16,0.302-0.238,0.4
			c-1.486,1.853-1.487,1.852-3.685,1.205c-0.247-0.073-0.498-0.134-0.751-0.181c-4.921-0.907-7.509,1.177-7.676,6.177
			c-0.229,6.863,5.93,10.813,12.058,7.736c0.141-0.071,0.304-0.095,0.827-0.252c-0.274,0.552-0.35,0.885-0.554,1.091
			c-2.989,3.021-6.462,3.846-9.728,2.337c-3.446-1.592-5.612-5.466-5.275-9.436c0.412-4.856,3.892-9.048,8.601-10.362
			C228.151-0.341,230.615,0.136,232.471,1.531z"/>
		<path id="XMLID_1245_" style="fill:#EB0029;" d="M125.67,17.731c0.818-0.539,1.663-1.096,2.333-1.538
			c1.061,0.778,1.893,1.63,2.905,2.072c1.39,0.608,2.069,0.113,2.384-1.356c0.473-2.21-0.231-3.58-2.312-4.56
			c-0.933-0.44-1.852-0.909-2.763-1.392c-1.61-0.854-2.277-2.282-2.334-4.029c-0.087-2.669,1.719-5.391,4.208-6.405
			c2.381-0.97,4.464-0.27,5.939,2.109c-0.78,0.543-1.569,1.093-2.381,1.658c-0.575-0.485-1.056-0.975-1.616-1.346
			c-1.234-0.819-2.773-0.856-3.33-0.146c-0.729,0.93-0.656,3.075,0.183,3.994c0.343,0.375,0.761,0.704,1.198,0.968
			c0.956,0.577,1.942,1.105,2.922,1.641c2.591,1.417,3.409,3.067,2.748,5.957c-0.641,2.806-2.451,4.601-5.229,5.298
			C128.349,21.202,126.458,20.035,125.67,17.731z"/>
		<path id="XMLID_1244_" style="fill:#EB0029;" d="M155.61,0.447c0.91,0,1.721-0.072,2.506,0.042
			c0.251,0.036,0.616,0.56,0.618,0.863c0.043,6.022,0.035,12.044,0.054,18.066c0.002,0.659-0.252,0.941-0.912,0.919
			c-0.728-0.025-1.457-0.006-2.266-0.006C155.61,13.75,155.61,7.198,155.61,0.447z"/>
		<path id="XMLID_1241_" style="fill:#FFFFFF;" d="M84.888,25.881c0-1.088-0.073-2.2,0.047-3.291
			c0.034-0.303,0.623-0.713,0.994-0.756c0.287-0.033,0.905,0.426,0.909,0.673c0.058,3.978,0.041,7.956,0.041,12.33
			c-0.956-0.285-1.54-0.48-2.137-0.625c-0.208-0.05-0.469-0.031-0.668,0.05c-2.758,1.122-4.922-0.571-4.556-3.577
			C79.888,27.653,81.527,26.14,84.888,25.881z M84.862,30.31c0-0.743,0.125-1.38-0.042-1.929c-0.119-0.392-0.584-0.844-0.979-0.947
			c-0.518-0.135-1.305-0.168-1.649,0.132c-1.006,0.875-0.929,4.397,0.089,5.294c0.393,0.347,1.092,0.563,1.599,0.487
			c0.33-0.049,0.697-0.698,0.812-1.14C84.863,31.556,84.823,30.85,84.862,30.31z"/>
		<path id="XMLID_1238_" style="fill:#FFFFFF;" d="M125.875,34.03c-0.267,0.132-0.548,0.241-0.797,0.4
			c-1.073,0.688-2.035,0.57-2.872-0.389c-0.753-0.863-0.832-2.356,0.066-3.177c0.686-0.626,1.656-0.966,2.538-1.341
			c0.365-0.156,0.832-0.074,1.237-0.099c0.241-2.037-0.791-2.408-3.954-1.508c0.644-1.639,1.898-2.302,3.742-1.977
			c1.681,0.296,2.385,1.143,2.414,2.964c0.022,1.419,0.044,2.841-0.016,4.258c-0.021,0.496-0.2,1.338-0.458,1.4
			c-0.58,0.14-1.254-0.107-1.889-0.197C125.882,34.253,125.879,34.142,125.875,34.03z M126.203,32.006
			c0.22-1.216-0.508-1.441-1.502-1.411c-0.667,0.02-1.319,0.013-1.322,0.952c-0.003,0.923,0.875,1.746,1.848,1.73
			C126.079,33.262,126.323,32.783,126.203,32.006z"/>
		<path id="XMLID_1235_" style="fill:#FFFFFF;" d="M73.38,33.967c-0.304,0.157-0.62,0.294-0.908,0.476
			c-1.078,0.68-2.039,0.547-2.863-0.414c-0.752-0.878-0.865-2.223,0.008-3.057c0.697-0.666,1.696-1.043,2.607-1.443
			c0.356-0.156,0.838-0.026,1.244-0.026c0.39-2.066-0.935-2.549-3.953-1.54c0.478-1.584,1.778-2.314,3.633-2.039
			c1.675,0.249,2.438,1.078,2.462,2.743c0.023,1.632,0.04,3.265-0.02,4.895c-0.014,0.375-0.305,1.003-0.556,1.05
			c-0.49,0.091-1.041-0.145-1.566-0.246C73.438,34.233,73.409,34.1,73.38,33.967z M73.891,32.868
			c-0.253-0.71-0.322-1.668-0.834-2.091c-0.387-0.32-1.366-0.04-2.017,0.171c-0.13,0.042-0.147,1.087,0.092,1.485
			C71.701,33.381,72.612,33.48,73.891,32.868z"/>
		<path id="XMLID_1232_" style="fill:#FFFFFF;" d="M180.926,30.942c0.034-2.323,1.259-3.912,3.231-4.881
			c2.107-1.036,4.538,0.844,4.495,3.392c-0.038,2.224-0.965,3.953-2.922,5.087c-1.042,0.603-2.087,0.488-3.057-0.092
			C181.367,33.666,180.939,32.387,180.926,30.942z M186.814,30.616c0.079-0.031,0.158-0.062,0.237-0.093
			c-0.362-0.837-0.581-1.785-1.121-2.486c-0.768-0.998-2.203-0.937-2.759-0.06c-0.648,1.023-0.5,3.324,0.284,4.267
			c0.667,0.801,1.617,1.2,2.502,0.794c0.461-0.211,0.6-1.157,0.845-1.786C186.875,31.067,186.814,30.83,186.814,30.616z"/>
		<path id="XMLID_1229_" style="fill:#FFFFFF;" d="M100.558,31.053c0.004-2.754,2.163-5.254,4.483-5.188
			c1.385,0.039,2.575,0.771,2.945,2.088c0.817,2.904-0.278,5.569-3.114,6.781C102.759,35.636,100.554,33.683,100.558,31.053z
			 M102.413,29.683c-0.008,1.63,0.388,2.54,1.264,3.094c1.377,0.87,2.502,0.407,2.697-1.177c0.087-0.706,0.059-1.456-0.082-2.153
			c-0.285-1.412-1.345-2.298-2.476-2.096C102.372,27.609,102.526,28.831,102.413,29.683z"/>
		<path id="XMLID_1226_" style="fill:#FFFFFF;" d="M229.481,31.122c-0.031-2.806,2.171-5.353,4.544-5.255
			c1.42,0.058,2.537,0.906,2.975,2.256c0.781,2.409-0.78,5.712-3.127,6.617C231.731,35.565,229.509,33.736,229.481,31.122z
			 M231.111,30.039c0.349,0.795,0.516,1.785,1.1,2.328c0.536,0.499,1.532,0.703,2.302,0.656c0.311-0.019,0.669-1.026,0.806-1.629
			c0.128-0.561,0.065-1.197-0.043-1.775c-0.278-1.484-1.31-2.394-2.487-2.287C231.793,27.422,231.319,28.269,231.111,30.039z"/>
		<path id="XMLID_1223_" style="fill:#FFFFFF;" d="M141.928,30.543c0.304,2.266,1.203,2.795,4.917,2.829
			c-1.514,0.86-2.527,1.922-4.176,1.477c-1.555-0.42-2.35-1.46-2.669-2.969c-0.575-2.716,0.72-5.07,3.387-5.734
			c0.677-0.169,1.793,0.16,2.244,0.67c0.553,0.627,1.002,1.804,0.777,2.516c-0.183,0.578-1.392,0.943-2.211,1.173
			C143.526,30.693,142.761,30.543,141.928,30.543z M144.374,29.43c0.066-1.3-0.456-2.121-1.413-2.068
			c-1.321,0.072-1.083,1.142-1.206,2.068C142.652,29.43,143.457,29.43,144.374,29.43z"/>
		<path id="XMLID_1222_" style="fill:#99999A;" d="M242.935,42.176c3.438-0.001,6.877-0.02,10.314,0.026
			c0.398,0.005,0.792,0.376,1.188,0.577c-0.391,0.211-0.782,0.604-1.174,0.606c-6.919,0.037-13.839,0.037-20.758-0.002
			c-0.374-0.002-0.745-0.421-1.118-0.646c0.368-0.187,0.734-0.531,1.104-0.535C235.973,42.16,239.454,42.177,242.935,42.176z"/>
		<path id="XMLID_1221_" style="fill:#99999A;" d="M80.847,42.175c3.351,0,6.703-0.021,10.054,0.026
			c0.451,0.006,0.897,0.358,1.346,0.549c-0.426,0.22-0.85,0.63-1.277,0.633c-6.831,0.04-13.663,0.029-20.495,0.029
			c-0.129,0-0.287,0.044-0.381-0.014c-0.311-0.194-0.599-0.425-0.896-0.641c0.317-0.193,0.632-0.548,0.952-0.553
			c3.05-0.043,6.101-0.027,9.151-0.028C79.816,42.174,80.331,42.175,80.847,42.175z"/>
		<path id="XMLID_1220_" style="fill:#FFFFFF;" d="M172.324,32.857c0.522-0.255,0.975-0.476,1.493-0.729
			c0.311,0.38,0.555,0.797,0.91,1.069c0.249,0.192,0.649,0.189,0.982,0.273c0.054-0.362,0.284-0.873,0.128-1.057
			c-0.365-0.431-0.876-0.792-1.397-1.028c-1.47-0.666-2.194-1.604-2.021-2.781c0.151-1.024,1.669-2.393,2.838-2.484
			c1.269-0.098,1.945,0.658,2.428,1.864c-0.508,0.27-0.981,0.521-1.489,0.791c-0.287-0.36-0.468-0.755-0.775-0.93
			c-0.355-0.203-0.821-0.212-1.238-0.306c0.087,0.492,0.008,1.154,0.298,1.436c0.47,0.456,1.196,0.638,1.79,0.978
			c1.787,1.022,1.842,2.972,0.13,4.147C174.501,35.407,173.175,35.052,172.324,32.857z"/>
		<path id="XMLID_1219_" style="fill:#FFFFFF;" d="M154.894,28.056c-0.444,0.231-0.889,0.461-1.376,0.714
			c-0.31-0.371-0.521-0.803-0.865-0.987c-0.342-0.183-0.817-0.115-1.233-0.158c0.071,0.431-0.009,1.031,0.245,1.257
			c0.498,0.443,1.187,0.667,1.787,1c1.937,1.077,1.997,3.075,0.133,4.294c-1.863,1.219-3.148,0.833-3.944-1.3
			c0.464-0.238,0.945-0.485,1.488-0.763c0.288,0.373,0.491,0.779,0.817,1.014c0.288,0.208,0.714,0.224,1.08,0.325
			c0.001-0.439,0.183-1.052-0.036-1.279c-0.423-0.439-1.058-0.686-1.629-0.966c-1.361-0.666-1.945-1.797-1.523-3.018
			c0.375-1.085,2.277-2.365,3.278-2.004c0.728,0.263,1.317,0.912,1.968,1.389C155.021,27.735,154.958,27.896,154.894,28.056z"/>
		<path id="XMLID_1218_" style="fill:#FFFFFF;" d="M254.804,27.823c-0.899,0.464-1.345,0.695-1.829,0.945
			c-0.312-0.375-0.523-0.809-0.868-0.992c-0.341-0.181-0.817-0.107-1.234-0.145c0.076,0.431,0.003,1.03,0.26,1.258
			c0.499,0.442,1.188,0.665,1.788,0.998c1.939,1.075,1.991,3.071,0.118,4.291c-1.871,1.219-3.146,0.832-3.93-1.309
			c0.466-0.236,0.947-0.481,1.491-0.757c0.26,0.345,0.433,0.727,0.729,0.926c0.331,0.222,0.773,0.277,1.166,0.405
			c-0.03-0.472,0.115-1.1-0.132-1.38c-0.37-0.417-1.01-0.604-1.547-0.863c-1.362-0.658-1.941-1.798-1.515-3.02
			c0.4-1.148,2.381-2.395,3.411-1.975C253.397,26.485,253.934,27.13,254.804,27.823z"/>
		<path id="XMLID_1217_" style="fill:#FFFFFF;" d="M192.658,28.105c0-1.758,0.014-3.515-0.007-5.273
			c-0.008-0.629,0.046-1.09,0.865-1.081c0.698,0.008,1.138,0.111,1.131,0.969c-0.028,3.646-0.029,7.293,0.001,10.939
			c0.007,0.859-0.438,0.976-1.129,0.976c-0.707,0-0.986-0.272-0.971-0.999c0.037-1.844,0.012-3.689,0.012-5.533
			C192.593,28.105,192.625,28.105,192.658,28.105z"/>
		<path id="XMLID_1216_" style="fill:#FFFFFF;" d="M134.543,24.286c-0.316,1.607,0.464,2.22,2.175,1.892
			c-0.034,0.12-0.067,0.241-0.101,0.361c-0.304,0.248-0.597,0.692-0.914,0.709c-1.067,0.058-1.086,0.709-1.066,1.495
			c0.023,0.9-0.053,1.803-0.02,2.703c0.073,1.947,0.091,1.947,2.058,2.169c-0.719,0.432-1.393,1.002-2.17,1.26
			c-1.027,0.341-1.796-0.341-1.834-1.532c-0.051-1.587,0.036-3.18-0.051-4.764c-0.028-0.518-0.412-1.018-0.685-1.647
			C132.977,26.574,132.162,24.074,134.543,24.286z"/>
		<path id="XMLID_1215_" style="fill:#FFFFFF;" d="M210.226,28.444c-0.756-0.369-1.511-0.739-2.267-1.108
			c-0.296,0.847-0.817,1.687-0.848,2.544c-0.093,2.628,1.419,3.715,4.447,3.382c-0.585,1.102-1.961,1.776-3.24,1.585
			c-1.586-0.237-2.779-1.406-3.093-3.032c-0.514-2.657,1.013-5.131,3.61-5.851c1.083-0.3,2.654,0.505,2.698,1.572
			c0.018,0.437-0.721,0.905-1.115,1.359C210.354,28.745,210.29,28.595,210.226,28.444z"/>
		<path id="XMLID_1214_" style="fill:#FFFFFF;" d="M118.216,27.99c-0.45,0.258-0.922,0.529-1.357,0.778
			c-0.148-0.072-0.227-0.101-0.298-0.146c-0.683-0.429-1.365-0.861-2.048-1.292c-0.303,0.764-0.812,1.511-0.872,2.294
			c-0.211,2.747,1.468,4.052,4.472,3.615c-0.854,1.877-3.698,2.24-5.242,0.616c-1.36-1.431-1.413-3.125-0.838-4.928
			c0.586-1.836,2.079-2.571,3.723-2.993C116.85,25.653,117.75,26.498,118.216,27.99z"/>
		<path id="XMLID_1213_" style="fill:#FFFFFF;" d="M90.269,26.367c0.724-0.134,1.257-0.232,1.896-0.351
			c0.726,2.088,1.427,4.105,2.24,6.444c0.499-1.397,0.818-2.572,1.335-3.651c0.45-0.939,0.211-2.458,2.151-2.718
			c-1.081,2.955-2.069,5.654-3.109,8.498c-0.934,0.432-1.595,0.181-1.997-1.095C92.051,31.165,91.166,28.883,90.269,26.367z"/>
		<path id="XMLID_1212_" style="fill:#FFFFFF;" d="M226.531,33.451c-0.887,0.568-1.5,1.1-2.211,1.384
			c-1.077,0.431-1.977-0.224-2.015-1.425c-0.052-1.632-0.036-3.268-0.009-4.902c0.012-0.722-0.039-1.324-1.12-1.327
			c1.467-0.554,0.536-3.191,2.817-2.895c0.402,1.69,0.402,1.69,2.385,2.176c-0.472,0.344-0.816,0.806-1.173,0.815
			c-1.046,0.027-1.035,0.651-1.013,1.389c0.025,0.816-0.001,1.634,0.007,2.451C224.219,33.258,224.24,33.279,226.531,33.451z"/>
		<path id="XMLID_1211_" style="fill:#99999A;" d="M206.266,42.297c0,0.559,0.053,1.125-0.023,1.673
			c-0.037,0.268-0.313,0.504-0.481,0.754c-0.201-0.264-0.545-0.512-0.574-0.793c-0.082-0.809-0.034-1.63-0.042-2.447
			c-0.008-0.73-0.136-1.55-1.017-1.445c-0.348,0.041-0.755,0.908-0.849,1.449c-0.13,0.746,0.07,1.543,0.008,2.309
			c-0.027,0.332-0.355,0.639-0.546,0.958c-0.211-0.3-0.569-0.583-0.605-0.902c-0.09-0.807,0.083-1.655-0.081-2.437
			c-0.108-0.515-0.621-0.945-0.952-1.413c-0.276,0.476-0.712,0.927-0.791,1.434c-0.132,0.839,0.017,1.718-0.063,2.57
			c-0.025,0.265-0.404,0.498-0.621,0.745c-0.182-0.238-0.512-0.471-0.52-0.714c-0.046-1.416-0.053-2.837,0.027-4.251
			c0.012-0.207,0.554-0.383,0.85-0.574c0.429,0.702,0.918,0.125,1.402,0.128c1.342,0.008,2.67,0.097,4.019-0.079
			c0.21-0.027,0.637,1.115,0.844,1.755c0.126,0.389,0.023,0.852,0.023,1.282H206.266z"/>
		<path id="XMLID_1210_" style="fill:#FFFFFF;" d="M243.811,27.546c-1.046,2.381-0.285,4.654-0.642,6.809
			c-1.668,0.623-1.978,0.386-1.945-1.301c0.045-2.228,0.011-4.457,0.011-6.755c0.941-0.083,1.769-0.591,2.115,0.533
			c0.654-0.236,1.297-0.557,1.974-0.661c0.229-0.035,0.647,0.428,0.8,0.748c0.646,1.355-0.883,1.101-1.263,1.821
			C244.532,28.366,244.287,28.088,243.811,27.546z"/>
		<path id="XMLID_1209_" style="fill:#99999A;" d="M209.41,41.94c0-0.688-0.075-1.389,0.037-2.058
			c0.045-0.269,0.502-0.47,0.772-0.702c0.549,0.662,1.061,0.253,1.649,0.013c1.025-0.419,1.975,0.145,2.052,1.238
			c0.085,1.198,0.055,2.408,0.002,3.609c-0.011,0.244-0.347,0.474-0.533,0.71c-0.207-0.258-0.568-0.503-0.592-0.777
			c-0.08-0.896-0.043-1.803-0.042-2.706c0.001-0.753-0.333-1.387-1.092-1.251c-0.408,0.073-0.917,0.728-1.005,1.192
			c-0.165,0.873-0.014,1.801-0.088,2.698c-0.024,0.294-0.339,0.563-0.521,0.844c-0.218-0.292-0.576-0.561-0.626-0.879
			c-0.1-0.629-0.029-1.285-0.029-1.93C209.399,41.94,209.405,41.94,209.41,41.94z"/>
		<path id="XMLID_1208_" style="fill:#FFFFFF;" d="M215.54,34.515c0-2.617-0.042-5.104,0.016-7.588
			c0.032-1.373,1.071-0.644,1.823-0.801c0,2.829,0,5.554,0,8.39C216.804,34.515,216.275,34.515,215.54,34.515z"/>
		<path id="XMLID_1207_" style="fill:#FFFFFF;" d="M201.105,26.134c0,2.729,0.027,5.255-0.042,7.779
			c-0.007,0.245-0.607,0.66-0.93,0.658c-0.306-0.002-0.867-0.439-0.875-0.698c-0.069-2.316-0.084-4.635-0.024-6.951
			C199.269,25.552,200.293,26.274,201.105,26.134z"/>
		<path id="XMLID_1204_" style="fill:#99999A;" d="M196.195,41.439c-0.026,1.909-1.35,3.561-2.857,3.564
			c-1.306,0.003-2.262-1.13-2.224-2.636c0.043-1.729,1.469-3.415,2.893-3.419C195.322,38.945,196.214,39.96,196.195,41.439z
			 M192.186,41.55c-0.015,1.403,0.824,2.466,1.883,2.429c1.151-0.04,1.044-0.961,1.075-1.701c0.06-1.414-0.711-2.472-1.73-2.418
			C192.263,39.92,192.309,40.851,192.186,41.55z"/>
		<path id="XMLID_1201_" style="fill:#99999A;" d="M224.334,41.045c-0.067-1.182-0.632-1.438-2.552-0.953
			c0.612-1.018,1.406-1.3,2.634-0.965c0.962,0.263,1.237,0.951,1.223,1.856c-0.015,0.985,0.046,1.975-0.039,2.953
			c-0.026,0.304-0.371,0.758-0.65,0.828c-0.639,0.161-1.339,0.226-1.99,0.142c-0.492-0.064-1.235-0.322-1.351-0.666
			c-0.187-0.558-0.19-1.507,0.16-1.842C222.392,41.803,223.336,41.541,224.334,41.045z M223.463,41.497
			c-0.562,0.693-1.13,1.245-1.064,1.336c0.337,0.464,0.816,0.844,1.31,1.147c0.061,0.037,0.768-0.603,0.728-0.861
			C224.369,42.666,223.954,42.266,223.463,41.497z"/>
		<path id="XMLID_1200_" style="fill:#99999A;" d="M157.619,41.854c0-0.515,0.009-1.03-0.002-1.545
			c-0.02-0.921-0.022-1.747,1.199-0.749c0.142,0.116,0.608-0.109,0.896-0.236c1.373-0.608,2.316-0.08,2.376,1.402
			c0.045,1.114,0.037,2.233-0.025,3.345c-0.013,0.228-0.369,0.437-0.566,0.655c-0.165-0.209-0.456-0.409-0.471-0.629
			c-0.063-0.897-0.039-1.8-0.052-2.701c-0.011-0.772-0.312-1.502-1.134-1.375c-0.42,0.065-0.931,0.787-1.047,1.293
			c-0.177,0.775,0.016,1.627-0.078,2.431c-0.042,0.357-0.402,0.676-0.618,1.012c-0.172-0.324-0.449-0.634-0.492-0.974
			c-0.08-0.633-0.023-1.284-0.023-1.928C157.594,41.854,157.606,41.854,157.619,41.854z"/>
		<path id="XMLID_1197_" style="fill:#99999A;" d="M126.746,41.16c-0.099-1.236-0.455-1.431-2.348-1.207
			c0.476-0.869,1.026-1.193,2.134-0.827c0.572,0.189,1.295,0.819,1.395,1.353c0.218,1.161,0.109,2.389,0.061,3.587
			c-0.01,0.246-0.487,0.696-0.502,0.685c-0.822-0.552-1.517,0.075-2.267,0.154c-0.414,0.044-1.205-0.438-1.267-0.783
			c-0.111-0.62-0.021-1.565,0.384-1.923C124.952,41.656,125.908,41.495,126.746,41.16z M125.863,41.554
			c-0.561,0.608-1.124,1.092-1.068,1.179c0.309,0.483,0.77,0.87,1.178,1.289c0.306-0.315,0.883-0.656,0.855-0.938
			C126.785,42.647,126.331,42.249,125.863,41.554z"/>
		<path id="XMLID_1194_" style="fill:#99999A;" d="M102.225,42.046c0.422,1.713,1.094,2.165,2.852,2.099
			c-1.221,1.142-2.579,1.149-3.473,0.019c-0.951-1.203-0.674-3.567,0.519-4.436c1.18-0.859,2.2-0.857,2.855,0.006
			c0.804,1.059,0.434,2.027-0.874,2.211C103.522,42.026,102.926,42.011,102.225,42.046z M101.991,40.972
			c0.107,0.155,0.215,0.309,0.322,0.464c0.597-0.027,1.193-0.054,1.79-0.082c0.073-0.149,0.145-0.298,0.218-0.447
			c-0.43-0.347-0.831-0.901-1.299-0.966C102.731,39.901,102.338,40.603,101.991,40.972z"/>
		<path id="XMLID_1193_" style="fill:#99999A;" d="M134.095,40.564c-0.38-0.124-0.753-0.279-1.142-0.361
			c-0.324-0.069-0.666-0.053-1-0.075c0.103,0.336,0.12,0.75,0.333,0.986c0.243,0.27,0.752,0.304,0.983,0.578
			c0.408,0.483,1.097,1.271,0.946,1.574c-0.339,0.684-1.04,1.338-1.748,1.631c-0.389,0.161-1.091-0.436-1.72-0.722
			c1.081-1.568,1.467,0.113,2.496,0c-0.131-0.445-0.184-0.899-0.4-1.254c-0.131-0.215-0.596-0.211-0.768-0.421
			c-0.427-0.525-1.183-1.245-1.056-1.652c0.205-0.654,0.934-1.31,1.6-1.594c0.415-0.177,1.121,0.328,1.697,0.527
			C134.243,40.041,134.169,40.303,134.095,40.564z"/>
		<path id="XMLID_1192_" style="fill:#99999A;" d="M168.907,44.2c-1.223,1.061-2.566,1.013-3.427-0.12
			c-0.927-1.22-0.651-3.453,0.535-4.336c1.366-1.017,2.302-0.92,3.16,0.385c-0.396,0.584-0.729,0.752-1.382,0.153
			c-0.852-0.782-1.426-0.518-1.682,0.632C165.686,42.822,166.592,43.886,168.907,44.2z"/>
		<path id="XMLID_1191_" style="fill:#99999A;" d="M96.668,43.635c0.637-1.732,1.136-3.087,1.634-4.442
			c0.164,0.061,0.328,0.122,0.492,0.183c-0.247,0.727-0.484,1.457-0.744,2.179c-0.319,0.889-0.629,1.784-1.005,2.65
			c-0.112,0.257-0.41,0.529-0.67,0.591c-0.164,0.039-0.53-0.258-0.613-0.478c-0.609-1.598-1.17-3.214-1.748-4.828
			c0.783-0.604,1.127-0.275,1.362,0.427C95.752,41.033,96.148,42.142,96.668,43.635z"/>
		<path id="XMLID_1190_" style="fill:#99999A;" d="M148.289,43.224c0.5-1.362,1-2.725,1.5-4.087
			c0.159,0.057,0.317,0.115,0.476,0.172c-0.185,0.567-0.359,1.139-0.558,1.701c-0.386,1.092-0.768,2.186-1.197,3.261
			c-0.089,0.223-0.367,0.503-0.571,0.513c-0.227,0.011-0.602-0.202-0.682-0.408c-0.577-1.478-1.114-2.972-1.611-4.479
			c-0.058-0.176,0.198-0.456,0.309-0.688c0.258,0.154,0.661,0.25,0.751,0.473c0.474,1.175,0.868,2.382,1.29,3.577
			C148.094,43.248,148.191,43.236,148.289,43.224z"/>
		<path id="XMLID_1189_" style="fill:#99999A;" d="M119.178,37.883c0.731,0.75,1.194,1.225,1.652,1.695
			c-1.841,0.565-0.924,2.2-0.965,3.464c-0.014,0.438,0.529,0.894,0.941,1.533c-0.385,0.082-1.064,0.423-1.591,0.263
			c-0.303-0.092-0.42-0.987-0.513-1.538c-0.199-1.178-0.47-2.373-0.429-3.552C118.295,39.09,118.884,38.452,119.178,37.883z"/>
		<path id="XMLID_1188_" style="fill:#99999A;" d="M179.066,44.507c-0.57,0.132-1.238,0.473-1.791,0.339
			c-0.281-0.068-0.417-0.979-0.51-1.528c-0.207-1.22-0.491-2.456-0.45-3.675c0.021-0.625,0.67-1.229,1.22-2.152
			c0.364,1.119,0.218,2.111,1.594,1.817c-2.145,0.998-1.112,2.7-1.192,4.072C177.92,43.685,178.566,44.028,179.066,44.507z"/>
		<path id="XMLID_1187_" style="fill:#99999A;" d="M109.628,40.064c-0.099,0.888-0.199,1.579-0.245,2.274
			c-0.036,0.553,0.063,1.123-0.034,1.661c-0.05,0.279-0.396,0.505-0.609,0.755c-0.191-0.231-0.542-0.459-0.546-0.692
			c-0.02-1.451,0.033-2.903,0.079-4.354c0.005-0.151,0.121-0.425,0.192-0.428c0.868-0.026,1.74-0.045,2.603,0.026
			c0.14,0.012,0.401,0.631,0.336,0.695c-0.244,0.24-0.585,0.432-0.921,0.509C110.311,40.55,110.075,40.309,109.628,40.064z"/>
		<path id="XMLID_1186_" style="fill:#EB0029;" d="M86.609,16.807c0.644,0.725,1.203,1.353,1.807,2.033
			c-0.558,0.534-1.185,1.135-1.893,1.812c-0.589-0.536-1.207-1.099-1.919-1.747C85.248,18.23,85.852,17.598,86.609,16.807z"/>
		<path id="XMLID_1185_" style="fill:#EB0029;" d="M254.607,18.884c-0.543,0.53-1.147,1.119-1.851,1.805
			c-0.639-0.571-1.288-1.151-1.966-1.758c0.752-0.646,1.421-1.221,2.156-1.853C253.392,17.563,253.984,18.207,254.607,18.884z"/>
		<path id="XMLID_1184_" style="fill:#99999A;" d="M154.285,41.901c0,0.726,0.048,1.458-0.027,2.177
			c-0.025,0.242-0.365,0.451-0.561,0.675c-0.185-0.236-0.522-0.467-0.531-0.709c-0.049-1.409-0.048-2.821,0.007-4.229
			c0.009-0.226,0.376-0.437,0.577-0.656c0.186,0.23,0.505,0.446,0.532,0.693c0.074,0.676,0.026,1.365,0.026,2.049
			C154.307,41.901,154.292,41.901,154.285,41.901z"/>
		<path id="XMLID_1183_" style="fill:#99999A;" d="M217.168,41.895c0-0.726-0.04-1.455,0.026-2.175
			c0.018-0.202,0.343-0.518,0.534-0.524c0.187-0.005,0.544,0.315,0.549,0.5c0.04,1.493,0.034,2.989-0.016,4.481
			c-0.007,0.197-0.343,0.383-0.526,0.574c-0.192-0.226-0.525-0.438-0.55-0.682c-0.074-0.718-0.026-1.449-0.026-2.175
			C217.161,41.895,217.164,41.895,217.168,41.895z"/>
		<path id="XMLID_1182_" style="fill:#99999A;" d="M115.154,42.045c0,0.728,0.029,1.457-0.02,2.181
			c-0.012,0.184-0.307,0.517-0.405,0.494c-0.235-0.054-0.608-0.274-0.614-0.437c-0.049-1.539-0.053-3.08-0.009-4.619
			c0.005-0.175,0.386-0.479,0.58-0.469c0.186,0.009,0.493,0.337,0.509,0.544c0.061,0.764,0.024,1.537,0.024,2.306
			C115.198,42.045,115.176,42.045,115.154,42.045z"/>
		<path id="XMLID_1181_" style="fill:#99999A;" d="M172.108,41.856c-0.001-0.644-0.05-1.293,0.022-1.929
			c0.03-0.263,0.319-0.497,0.491-0.745c0.193,0.222,0.546,0.439,0.553,0.666c0.044,1.415,0.03,2.833-0.02,4.247
			c-0.008,0.214-0.309,0.418-0.474,0.626c-0.19-0.226-0.52-0.437-0.544-0.679C172.063,43.321,172.11,42.586,172.108,41.856z"/>
		<path id="XMLID_1180_" style="fill:#FFFFFF;" d="M164.707,31.369c-0.469,0.469-0.74,0.744-1.016,1.014
			c-0.06,0.059-0.139,0.098-0.355,0.246c-0.392-0.355-0.814-0.739-1.377-1.249c0.515-0.39,0.954-0.722,1.535-1.162
			C163.809,30.515,164.242,30.927,164.707,31.369z"/>
		<path id="XMLID_1179_" style="fill:#FFFFFF;" d="M201.378,23.225c-1.129,1.617-1.18,1.63-2.5,0.687
			C199.975,22.213,200.198,22.152,201.378,23.225z"/>
		<path id="XMLID_1178_" style="fill:#FFFFFF;" d="M215.202,23.89c1.309-1.695,1.333-1.701,2.542-0.7
			C216.674,24.793,216.557,24.828,215.202,23.89z"/>
	</g>
</g>
</svg>
